<svg width="392.24mm" height="85.692mm" version="1.1" viewBox="0 0 392.24 85.692"
    xmlns="http://www.w3.org/2000/svg">
    <path
        d="m38.623 76.056c-0.0205-2.5891 0.89009-4.6299 2.7999-6.203 1.8093-1.4903 3.2036-3.1696 3.2528-5.6681 0.0701-3.5587 0.0803-7.1103-2.2102-10.129-1.1246-1.482-2.8031-1.7588-4.572-1.4435-2.7673 0.49325-5.2411 4.2704-4.5147 6.9532 0.57927 2.1392 0.74199 4.2383-0.15167 6.3283-1.6273 3.8056-6.1755 5.8805-10.259 4.6808-4.1256-1.2121-6.7036-5.3192-5.9433-9.469 0.79479-4.3381 4.7779-7.4114 9.2047-7.1022 4.5527 0.31812 7.5544-1.6935 8.3477-5.5943 0.75433-3.7094-1.6033-7.424-5.5632-8.7845-3.4358-1.1808-6.3908-0.5347-8.9552 2.0848-3.3287 3.4-7.3752 4.5819-11.954 3.0867-4.6186-1.5083-7.1767-4.8868-7.9698-9.5749-0.90874-5.3711 2.8692-10.951 8.4724-12.592 5.2962-1.5515 11.256 1.049 13.523 5.9085 6.5392 14.021 15.626 5.3186 15.989 4.9619 2.7609-2.707 3.1075-8.2778 0.66041-11.27-3.405-2.6314-7.0119-3.694-7.1224-8.8084 0.076-3.0957 1.5439-5.5305 4.5785-6.8157 3.3551-1.4209 7.1094-0.34802 9.3605 2.6835 2.1483 2.893 2.2248 6.8265-0.42777 9.2948-3.0043 2.7957-2.2106 7.413-0.24574 10.071 1.5841 2.1435 4.4235 2.8316 7.0899 1.5114 3.8429-1.9028 7.9785-5.7747 6.7648-12.143-1.5913-8.3494 5.6539-14.951 13.358-14.271 7.6782 0.67776 12.7 7.3934 11.327 14.85-1.2944 7.0322-8.5755 11.375-15.866 9.3692-3.9408-1.0845-7.1549 0.13074-9.869 2.8495-2.6362 2.6405-3.819 5.8389-2.8127 9.5408 1.0926 4.0186 5.618 7.521 9.7631 7.7182 1.406 0.06686 2.5814-0.5613 3.7978-1.1235 5.0987-2.3569 10.83 0.63746 11.759 6.1219 0.72383 4.2774-2.067 8.2397-6.5288 9.2695-3.9397 0.90908-8.5523-1.6422-9.6521-6.4359-0.99636-4.3445-4.1265-6.7767-8.5445-6.6373-3.8988 0.12298-7.087 3.0569-7.6685 7.3002-0.38804 2.8319-0.18478 5.6614 0.73881 8.4216 0.60014 1.7936 1.8461 2.907 3.4052 3.8954 3.897 2.4705 5.3044 7.2821 3.3996 11.213-1.7584 3.6282-5.9396 5.6282-9.9364 4.7527-4.106-0.89937-6.7247-4.2243-6.8244-8.802z"
        fill="#f60" stroke-width=".2958" />
    <g fill="#fff">
        <g transform="matrix(.08753 0 0 .08753 -1.5757 -1.9376)">
            <path
                d="m839.64 874.8c13.787 32.698-1.5784 63.373-32.746 67.738-20.75 2.9055-39.925-7.9386-47.756-27.008-7.9941-19.465-1.5384-43.38 14.631-54.203 19.237-12.876 41.648-11.689 57.737 3.2721 2.8533 2.6533 5.0356 6.0117 8.1329 10.201z"
                stroke-width="3.3794" />
            <circle cx="285.27" cy="230.74" r="19" stroke-width="1.1884" />
            <circle cx="220.78" cy="134.5" r="70" stroke-width="4.3785" />
            <circle cx="90.749" cy="681.12" r="50" stroke-width="3.1275" />
            <circle cx="952.11" cy="478.65" r="50" stroke-width="3.1275" />
            <g stroke-width="2.502">
                <circle cx="381.63" cy="359.25" r="40" />
                <circle cx="320.58" cy="559.63" r="40" />
                <circle cx="650.41" cy="675.05" r="40" />
            </g>
            <circle cx="463.89" cy="699.61" r="35" stroke-width="2.1892" />
            <circle cx="582.11" cy="308.89" r="40" stroke-width="2.502" />
            <circle cx="638.24" cy="62.136" r="40" stroke-width="2.502" />
            <g stroke-width="1.1884">
                <circle cx="327.88" cy="286.41" r="19" />
                <circle cx="618.03" cy="147.62" r="19" />
                <circle cx="608.52" cy="217.57" r="19" />
                <circle cx="702.12" cy="767.77" r="19" />
                <circle cx="744.73" cy="823.44" r="19" />
                <circle cx="172.99" cy="628.15" r="19" />
                <circle cx="238.69" cy="601.22" r="19" />
                <circle cx="442.64" cy="777.78" r="19" />
                <circle cx="413.75" cy="833.17" r="19" />
                <circle cx="387.26" cy="886.1" r="19" />
                <circle cx="855.77" cy="463.8" r="19" />
            </g>
            <circle cx="744.86" cy="459.03" r="75" stroke-width="4.6912" />
        </g>
        <path transform="matrix(.52539 0 0 .50983 -210.06 137.95)"
            d="m617.13-155.28q-9.1596 0-16.348-4.0581-7.1886-4.174-11.363-11.363t-4.174-16.348q0-9.1596 4.174-16.348t11.363-11.247q7.1886-4.174 16.348-4.174 9.0437 0 16.232 4.174 7.1886 4.0581 11.247 11.247 4.174 7.1886 4.174 16.348 0 9.1597-4.174 16.348-4.0581 7.1886-11.247 11.363-7.1886 4.0581-16.232 4.0581zm0-12.638q4.9856 0 8.8118-2.5508 3.9421-2.5508 6.1451-6.8408 2.3189-4.29 2.203-9.7394 0.11595-5.5654-2.203-9.8553-2.203-4.29-6.1451-6.7248-3.8262-2.5508-8.8118-2.5508-4.9856 0-9.0437 2.5508-3.9421 2.4348-6.1451 6.8408-2.203 4.29-2.203 9.7394 0 5.4494 2.203 9.7394 2.203 4.29 6.1451 6.8408 4.0581 2.5508 9.0437 2.5508zm39.164 36.986v-86.611h14.029l0.23189 13.913-2.4348-1.0435q0.69567-3.5943 3.9421-6.7248 3.2465-3.2465 7.8843-5.2175 4.7537-1.9711 9.8553-1.9711 8.1162 0 14.377 4.0581 6.377 4.0581 9.9713 11.131 3.7102 7.0726 3.7102 16.348 0 9.1597-3.7102 16.348-3.5943 7.0726-9.9713 11.247-6.261 4.0581-14.145 4.0581-5.3335 0-10.319-2.087-4.8697-2.087-8.348-5.4494-3.3624-3.3624-4.174-7.0726l3.4784-1.6232v40.697zm30.841-37.102q4.8697 0 8.6959-2.4348 3.8262-2.4348 5.9132-6.7248 2.203-4.29 2.203-9.8553t-2.087-9.7394q-2.087-4.29-5.9132-6.7248-3.8262-2.4348-8.8118-2.4348-5.1016 0-8.9278 2.4348-3.7102 2.3189-5.9132 6.6089-2.203 4.29-2.203 9.8553t2.203 9.8553q2.203 4.29 5.9132 6.7248 3.8262 2.4348 8.9278 2.4348zm66.875 12.754q-9.6234 0-17.044-4.0581-7.3045-4.0581-11.479-11.015-4.0581-7.0726-4.0581-16.116 0-7.1886 2.3189-13.102 2.3189-5.9132 6.377-10.203 4.174-4.4059 9.8553-6.7248 5.7972-2.4348 12.638-2.4348 6.0291 0 11.247 2.3189 5.2175 2.3189 9.0437 6.377 3.8262 3.9421 5.7972 9.5075 2.087 5.4494 1.9711 11.942l-0.11594 4.9856h-49.509l-2.6667-9.7394h40.233l-1.8551 1.9711v-2.5508q-0.34783-3.5943-2.3189-6.261-1.9711-2.7827-5.1016-4.29-3.0146-1.6232-6.7248-1.6232-5.6813 0-9.6234 2.203-3.8262 2.203-5.7972 6.377-1.9711 4.0581-1.9711 10.203 0 5.9132 2.4348 10.319 2.5508 4.4059 7.0726 6.8408 4.6378 2.3189 10.783 2.3189 4.29 0 7.8843-1.3913 3.5943-1.3913 7.7683-4.9856l7.0726 9.8553q-3.1305 2.8986-7.1886 4.9856-3.9421 1.9711-8.348 3.1305t-8.6959 1.1594zm34.062-1.1594v-61.103h13.913l0.23189 12.522-2.6667 1.3913q1.1594-4.174 4.5218-7.5364 3.3624-3.4784 8.0002-5.5654t9.5075-2.087q6.9567 0 11.594 2.7827 4.7537 2.7827 7.0726 8.348 2.4348 5.5654 2.4348 13.913v37.334h-14.261v-36.291q0-4.6378-1.2754-7.6524-1.2754-3.1305-3.9421-4.5219-2.6667-1.5073-6.4929-1.3913-3.1305 0-5.7972 1.0435-2.5508 0.92756-4.5219 2.7827-1.8551 1.7392-3.0146 4.0581-1.0435 2.3189-1.0435 5.1016v36.871h-7.0726q-2.087 0-3.9421 0-1.7392 0-3.2465 0z"
            stroke-width="1.2346" style="white-space:pre" aria-label="open" />
        <path
            d="m246.85 57.596v-39.665h7.3809v39.665zm-6.2408-24.783v-6.8408h20.523v6.8408zm26.163 24.783v-31.624h7.2609l0.12002 10.081-1.0201-2.2803q0.66008-2.4003 2.2803-4.3205t3.7205-3.0004q2.1603-1.1401 4.5006-1.1401 1.0201 0 1.9202 0.18002 0.96011 0.18002 1.5602 0.42005l-1.9802 8.101q-0.66008-0.36004-1.6202-0.60007-0.96011-0.24003-1.9202-0.24003-1.5002 0-2.8804 0.60007-1.3202 0.54007-2.3403 1.5602-1.0201 1.0201-1.6202 2.4003-0.54006 1.3202-0.54006 3.0004v16.862zm35.884 0.60007q-3.9005 0-7.0809-2.1603-3.1804-2.1603-5.1006-5.8807-1.9202-3.7205-1.9202-8.461 0-4.7406 1.9202-8.461 1.9202-3.7205 5.2206-5.8207t7.4409-2.1003q2.4003 0 4.3805 0.72009 1.9802 0.66008 3.4804 1.9202 1.5002 1.2602 2.4603 2.8804 1.0201 1.6202 1.3802 3.4804l-1.6202-0.42005v-7.921h7.4409v31.624h-7.5009v-7.5609l1.7402-0.30004q-0.42005 1.6202-1.5602 3.1804-1.0801 1.5002-2.7604 2.7003-1.6202 1.1401-3.6604 1.8602-1.9802 0.72009-4.2605 0.72009zm2.0402-6.5408q2.5803 0 4.5606-1.2602 1.9802-1.2602 3.0604-3.4804 1.1401-2.2803 1.1401-5.2206 0-2.8804-1.1401-5.1006-1.0801-2.2203-3.0604-3.4804-1.9802-1.2602-4.5606-1.2602t-4.5606 1.2602q-1.9202 1.2602-3.0004 3.4804-1.0801 2.2203-1.0801 5.1006 0 2.9404 1.0801 5.2206 1.0801 2.2203 3.0004 3.4804 1.9802 1.2602 4.5606 1.2602zm38.105 6.5408q-4.4406 0-7.981-2.1603-3.5404-2.1603-5.5807-5.8807-2.0403-3.7205-2.0403-8.401t2.0403-8.401q2.0402-3.7205 5.5807-5.8807 3.5404-2.1603 7.981-2.1603 4.2605 0 7.741 1.6202t5.4007 4.5006l-4.0805 4.9206q-0.90012-1.2602-2.2803-2.2803-1.3802-1.0201-2.9404-1.6202t-3.1204-0.60007q-2.6403 0-4.7406 1.3202-2.0402 1.2602-3.2404 3.5404-1.2002 2.2203-1.2002 5.0406t1.2002 5.0406q1.2602 2.2203 3.3604 3.5404t4.6806 1.3202q1.5602 0 3.0004-0.48006 1.5002-0.54007 2.8204-1.5002 1.3202-0.96012 2.4603-2.4003l4.0805 4.9806q-2.0402 2.6403-5.6407 4.3205-3.5404 1.6202-7.5009 1.6202zm33.604 0q-4.9806 0-8.8211-2.1003-3.7805-2.1003-5.9407-5.7007-2.1003-3.6605-2.1003-8.341 0-3.7205 1.2002-6.7808 1.2001-3.0604 3.3004-5.2807 2.1603-2.2803 5.1006-3.4804 3.0004-1.2602 6.5408-1.2602 3.1204 0 5.8207 1.2001 2.7003 1.2001 4.6806 3.3004 1.9802 2.0403 3.0004 4.9206 1.0801 2.8203 1.0201 6.1808l-0.06 2.5803h-25.623l-1.3802-5.0406h20.823l-0.96012 1.0201v-1.3202q-0.18002-1.8602-1.2002-3.2404-1.0201-1.4402-2.6403-2.2203-1.5602-0.8401-3.4804-0.8401-2.9404 0-4.9806 1.1401-1.9802 1.1401-3.0004 3.3004-1.0201 2.1003-1.0201 5.2807 0 3.0604 1.2602 5.3407 1.3202 2.2803 3.6605 3.5404 2.4003 1.2001 5.5807 1.2001 2.2203 0 4.0805-0.72009t4.0205-2.5803l3.6604 5.1006q-1.6202 1.5002-3.7204 2.5803-2.0403 1.0201-4.3205 1.6202t-4.5006 0.60007z"
            stroke-width=".67003" aria-label="trace" />
    </g>
</svg>